<svg width="1420" height="420" fill="none" xmlns="http://www.w3.org/2000/svg">
    <ellipse cx="219.96" cy="210" rx="219.96" ry="210" fill="red"/>
    <ellipse cx="219.96" cy="210" rx="131.976" ry="129.6" fill="red" stroke="#fff" stroke-width="21.6"/>
    <path d="M177.864 296.728l116.196-65.004-116.196-65.006v130.01zM523.468 178.947c-10.008 49.272-17.604 109.872-21.7 135.34h-2.86c-13.284-104.688-44.588-348.856-87.452-548.132l-83.46-405.72h-295.76v1083.36h184.36V164.368l18.36 95.988 188.952 933.888h184.36l184.36-933.888 20.04-98.012v1040.232h184.36V147.24h-299.992l-94.34 457.44zM779.038 486.832c-.912 4.601-2.88 7.798-4.848 7.798-2.304 0-3.216-1.747-3.216-6.056v-218.4h-8.624v225.12c0 28.08 9.464 40.94 30.424 40.94 14.368 0 25.904-6.24 33.952-21.168h.816l38.988 237.504h125.12v-529.8h-160.896v463.28h.012zM929.024 363.274c-16.72-11.86-27.08-19.68-27.08-36.72 0-12.168 7.36-19.02 24.8-19.02 18.144 0 24.232 12.168 24.6 53.808l53.808-2.232c4.176-67.352-18.608-95.368-77.32-95.368-43.376 0-64.624 19.02-64.624 58.16 0 35.472 17.68 51.64 46.368 72.64 24.752 18.56 39.008 28.8 39.008 43.52 0 11.376-7.28 19.144-25.248 19.144-18.848 0-29.768-17.416-27.056-47.896l-54.008.88c-8.352 56.896 15.296 90.336 78.32 90.336 55.088 0 84.016-24.64 84.016-73.872-.004-44.624-23.056-62.496-73.32-98.048zM1067.984 292.48h-94.504v664.88h94.504V292.48zM1046.224 106.764c-13.248 0-19.496 4.782-19.496 21.372 0 16.992 6.176 21.204 19.52 21.204 13.576 0 19.496-4.312 19.496-21.204 0-15.81-5.248-21.372-19.52-21.372z" fill="#fff"/>
  </svg>
  